<svg id="图层_1" data-name="图层 1" xmlns="http://www.w3.org/2000/svg" viewBox="0 0 199.98 200"><path d="M29,170.52a6.49,6.49,0,0,1,0-9.19l0,0a6.57,6.57,0,0,1,9.25,0,87.19,87.19,0,0,0,116.57,6.22l6.95-6.41a6.57,6.57,0,0,1,9.24.35,6.5,6.5,0,0,1-.33,9.19h0l-7.24,6.67A100.28,100.28,0,0,1,29,170.52ZM197.63,122a6.54,6.54,0,0,1-12.78-2.81A86.55,86.55,0,0,0,126.43,17.93a6.51,6.51,0,1,1,4-12.41A99.54,99.54,0,0,1,197.61,122ZM53.78,27.08A86.53,86.53,0,0,0,15,118.38a6.54,6.54,0,0,1-12.8,2.69A99.6,99.6,0,0,1,54.61,11.64C64.22,6.14,84.26-.82,99.09.12a6.16,6.16,0,0,1,5,1.16,5.89,5.89,0,0,1,2.17,4,5.06,5.06,0,0,1-.2,1.57,4.46,4.46,0,0,1-1.52,2.37L66.65,51.52a5.53,5.53,0,0,1-5.86,1.35,5.92,5.92,0,0,1-4.07-4.63L53.78,27.07Zm-1,153.38c-.58-.09-1.42,6.2-6.72,3.5-9.41-4.81-27-19.1-34.16-33a6.1,6.1,0,0,1-1.57-4.86,5.84,5.84,0,0,1,2.27-3.9,4.88,4.88,0,0,1,1.45-.64,4.43,4.43,0,0,1,2.81.08l55.8,10.67a5.5,5.5,0,0,1,4.18,4.32A5.9,5.9,0,0,1,75,162.55L52.8,180.46Zm140-85.29c.22.55,6-2,6.45,4,.73,10.56-2.45,33-10.65,46.26a6.16,6.16,0,0,1-3.36,3.87,5.9,5.9,0,0,1-4.52.06,4.91,4.91,0,0,1-1.3-.92A4.46,4.46,0,0,1,178,146l-19.6-53.34a5.52,5.52,0,0,1,1.56-5.8,5.89,5.89,0,0,1,6-1.43l26.79,9.8Z" transform="translate(-0.01 0)"/></svg>